<svg width="320" height="400" viewBox="0 0 320 400" fill="none" xmlns="http://www.w3.org/2000/svg">
  <rect width="320" height="400" rx="32" fill="#F3F5F8"/>
  <rect x="24" y="24" width="272" height="352" rx="24" fill="#FFFFFF" stroke="#D8E0EA" stroke-width="2"/>
  <circle cx="160" cy="132" r="58" fill="#E8EEFF"/>
  <path d="M160 88C145.088 88 133 100.088 133 115V121.272L115.757 133.815C111.981 136.562 110.329 141.39 111.632 145.875L126.83 198.189C128.715 204.68 134.663 209.143 141.422 209.143H178.578C185.337 209.143 191.285 204.68 193.17 198.189L208.368 145.875C209.671 141.39 208.019 136.562 204.243 133.815L187 121.272V115C187 100.088 174.912 88 160 88Z" fill="#4C5BD4"/>
  <path d="M148.857 114.857C148.857 108.703 153.846 103.714 160 103.714C166.154 103.714 171.143 108.703 171.143 114.857V123.571H148.857V114.857Z" fill="#FFFFFF"/>
  <rect x="97" y="252" width="126" height="16" rx="8" fill="#DAE2EC"/>
  <rect x="117" y="280" width="86" height="12" rx="6" fill="#E5EBF3"/>
  <rect x="132" y="304" width="56" height="12" rx="6" fill="#EEF2F7"/>
</svg>
