<svg xmlns="http://www.w3.org/2000/svg" viewBox="0 0 96 96" fill="none">
  <defs>
    <linearGradient id="spreeGold" x1="16" y1="10" x2="78" y2="88" gradientUnits="userSpaceOnUse">
      <stop offset="0" stop-color="#FFF3C6"/>
      <stop offset="0.4" stop-color="#F1D285"/>
      <stop offset="0.72" stop-color="#D9AC56"/>
      <stop offset="1" stop-color="#B8832C"/>
    </linearGradient>
    <filter
      id="spreeGlow"
      x="-10"
      y="-10"
      width="116"
      height="116"
      color-interpolation-filters="sRGB"
    >
      <feDropShadow dx="0" dy="2" stdDeviation="2.5" flood-color="#B8832C" flood-opacity="0.18" />
    </filter>
  </defs>

  <g
    filter="url(#spreeGlow)"
    stroke="url(#spreeGold)"
    stroke-linecap="round"
    stroke-linejoin="round"
  >
    <path
      d="M46 22c9-7.2 19.8-11.7 29.4-11.2 7.6.4 10 7.4 6.1 13.1-4.6 6.7-11 12.7-19.7 19"
      stroke-width="5.5"
    />
    <path
      d="M72.6 16.1c-11-6.2-27.4-5.3-36.7 3-8 7.1-10.4 18.6-6 25.8 3.2 5.2 9.9 8.4 18 10.3l9 2c11 2.4 18.4 7 18.4 15 0 11.2-12.3 18.3-28.7 18.3-13.5 0-25.8-4.5-33.6-11.8"
      stroke-width="5.5"
    />
    <path d="M27 28.5h24v18.8" stroke-width="4.3" />
    <path
      d="M32.7 28.5v-3.3c0-6.2 4.8-11.4 10.9-11.9 6.8-.6 12.4 4.8 12.4 11.4v3.8"
      stroke-width="4.3"
    />
    <path d="M24.9 43.5c-1.2 4.9-.8 10.7 4 14.4" stroke-width="4.3" />
    <path d="M34.7 33.4v6" stroke-width="3.2" />
    <path d="M44.3 33.4v6" stroke-width="3.2" />
    <circle cx="34.7" cy="36.6" r="1.8" fill="url(#spreeGold)" stroke="none" />
    <circle cx="44.3" cy="36.6" r="1.8" fill="url(#spreeGold)" stroke="none" />
    <path d="M22.5 79.2c15.2-8.8 33.8-13.7 58.2-12.9" stroke-width="4.3" />
  </g>
</svg>
